<mxfile host="" modified="2020-05-24T15:21:41.060Z" agent="5.0 (X11; Linux x86_64) AppleWebKit/537.36 (KHTML, like Gecko) Code/1.45.0 Chrome/78.0.3904.130 Electron/7.2.4 Safari/537.36" version="13.1.3" etag="lrwgP8mNOWNbAz78NI_h" pages="2">
            <diagram id="diagramid" name="Diagram">
              <mxGraphModel><root><mxCell id="0"/><mxCell id="1" parent="0"/><mxCell id="2" value="BirthdayPresentTrackerVPC" style="outlineConnect=0;fontColor=#B3B3B3;gradientColor=#945DF2;gradientDirection=north;fillColor=#5A30B5;strokeColor=#ffffff;dashed=0;verticalLabelPosition=bottom;verticalAlign=top;align=center;html=1;fontSize=12;fontStyle=0;aspect=fixed;shape=mxgraph.aws4.resourceIcon;resIcon=mxgraph.aws4.vpc;" vertex="1" parent="1"><mxGeometry x="1250" y="450" width="50" height="50" as="geometry"/></mxCell><mxCell id="3" value="BirthdayPresentTrackerSubnetA" style="outlineConnect=0;fontColor=#B3B3B3;gradientColor=#F78E04;gradientDirection=north;fillColor=#D05C17;strokeColor=#ffffff;dashed=0;verticalLabelPosition=bottom;verticalAlign=top;align=center;html=1;fontSize=12;fontStyle=0;aspect=fixed;shape=mxgraph.aws4.resourceIcon;resIcon=mxgraph.aws4.ec2;" vertex="1" parent="1"><mxGeometry x="1000" y="550" width="50" height="50" as="geometry"/></mxCell><mxCell id="4" value="BirthdayPresentTrackerSubnetB" style="outlineConnect=0;fontColor=#B3B3B3;gradientColor=#F78E04;gradientDirection=north;fillColor=#D05C17;strokeColor=#ffffff;dashed=0;verticalLabelPosition=bottom;verticalAlign=top;align=center;html=1;fontSize=12;fontStyle=0;aspect=fixed;shape=mxgraph.aws4.resourceIcon;resIcon=mxgraph.aws4.ec2;" vertex="1" parent="1"><mxGeometry x="1000" y="650" width="50" height="50" as="geometry"/></mxCell><mxCell id="5" value="BirthdayPresentTrackerDBSubnetGroup" style="outlineConnect=0;fontColor=#B3B3B3;gradientColor=#4D72F3;gradientDirection=north;fillColor=#3334B9;strokeColor=#ffffff;dashed=0;verticalLabelPosition=bottom;verticalAlign=top;align=center;html=1;fontSize=12;fontStyle=0;aspect=fixed;shape=mxgraph.aws4.resourceIcon;resIcon=mxgraph.aws4.rds;" vertex="1" parent="1"><mxGeometry x="750" y="925" width="50" height="50" as="geometry"/></mxCell><mxCell id="6" value="BirthdayPresentTrackerLambdaSecurityGroup" style="outlineConnect=0;fontColor=#B3B3B3;gradientColor=#F78E04;gradientDirection=north;fillColor=#D05C17;strokeColor=#ffffff;dashed=0;verticalLabelPosition=bottom;verticalAlign=top;align=center;html=1;fontSize=12;fontStyle=0;aspect=fixed;shape=mxgraph.aws4.resourceIcon;resIcon=mxgraph.aws4.ec2;" vertex="1" parent="1"><mxGeometry x="500" y="200" width="50" height="50" as="geometry"/></mxCell><mxCell id="7" value="BirthdayPresentTrackerLambdaSecurityGroupEgress" style="outlineConnect=0;fontColor=#B3B3B3;gradientColor=#F78E04;gradientDirection=north;fillColor=#D05C17;strokeColor=#ffffff;dashed=0;verticalLabelPosition=bottom;verticalAlign=top;align=center;html=1;fontSize=12;fontStyle=0;aspect=fixed;shape=mxgraph.aws4.resourceIcon;resIcon=mxgraph.aws4.ec2;" vertex="1" parent="1"><mxGeometry x="250" y="100" width="50" height="50" as="geometry"/></mxCell><mxCell id="8" value="BirthdayPresentTrackerRDSSecurityGroup" style="outlineConnect=0;fontColor=#B3B3B3;gradientColor=#F78E04;gradientDirection=north;fillColor=#D05C17;strokeColor=#ffffff;dashed=0;verticalLabelPosition=bottom;verticalAlign=top;align=center;html=1;fontSize=12;fontStyle=0;aspect=fixed;shape=mxgraph.aws4.resourceIcon;resIcon=mxgraph.aws4.ec2;" vertex="1" parent="1"><mxGeometry x="750" y="325" width="50" height="50" as="geometry"/></mxCell><mxCell id="9" value="BirthdayPresentTrackerRDSIngress" style="outlineConnect=0;fontColor=#B3B3B3;gradientColor=#F78E04;gradientDirection=north;fillColor=#D05C17;strokeColor=#ffffff;dashed=0;verticalLabelPosition=bottom;verticalAlign=top;align=center;html=1;fontSize=12;fontStyle=0;aspect=fixed;shape=mxgraph.aws4.resourceIcon;resIcon=mxgraph.aws4.ec2;" vertex="1" parent="1"><mxGeometry x="250" width="50" height="50" as="geometry"/></mxCell><mxCell id="10" value="BirthdayPresentTrackerSecretsManagerEndpointSecurityGroup" style="outlineConnect=0;fontColor=#B3B3B3;gradientColor=#F78E04;gradientDirection=north;fillColor=#D05C17;strokeColor=#ffffff;dashed=0;verticalLabelPosition=bottom;verticalAlign=top;align=center;html=1;fontSize=12;fontStyle=0;aspect=fixed;shape=mxgraph.aws4.resourceIcon;resIcon=mxgraph.aws4.ec2;" vertex="1" parent="1"><mxGeometry x="250" y="250" width="50" height="50" as="geometry"/></mxCell><mxCell id="11" value="BirthdayPresentTrackerSecretsManagerIngress" style="outlineConnect=0;fontColor=#B3B3B3;gradientColor=#F78E04;gradientDirection=north;fillColor=#D05C17;strokeColor=#ffffff;dashed=0;verticalLabelPosition=bottom;verticalAlign=top;align=center;html=1;fontSize=12;fontStyle=0;aspect=fixed;shape=mxgraph.aws4.resourceIcon;resIcon=mxgraph.aws4.ec2;" vertex="1" parent="1"><mxGeometry y="212.5" width="50" height="50" as="geometry"/></mxCell><mxCell id="12" value="BirthdayPresentTrackerDBSecret" style="outlineConnect=0;fontColor=#B3B3B3;gradientColor=#F54749;gradientDirection=north;fillColor=#C7131F;strokeColor=#ffffff;dashed=0;verticalLabelPosition=bottom;verticalAlign=top;align=center;html=1;fontSize=12;fontStyle=0;aspect=fixed;shape=mxgraph.aws4.resourceIcon;resIcon=mxgraph.aws4.secretsmanager;" vertex="1" parent="1"><mxGeometry x="750" y="625" width="50" height="50" as="geometry"/></mxCell><mxCell id="13" value="BirthdayPresentTrackerSecretsManagerEndpoint" style="outlineConnect=0;fontColor=#B3B3B3;gradientColor=#F78E04;gradientDirection=north;fillColor=#D05C17;strokeColor=#ffffff;dashed=0;verticalLabelPosition=bottom;verticalAlign=top;align=center;html=1;fontSize=12;fontStyle=0;aspect=fixed;shape=mxgraph.aws4.resourceIcon;resIcon=mxgraph.aws4.ec2;" vertex="1" parent="1"><mxGeometry y="350" width="50" height="50" as="geometry"/></mxCell><mxCell id="14" value="BirthdayPresentTrackerRDSInstance" style="outlineConnect=0;fontColor=#B3B3B3;gradientColor=#4D72F3;gradientDirection=north;fillColor=#3334B9;strokeColor=#ffffff;dashed=0;verticalLabelPosition=bottom;verticalAlign=top;align=center;html=1;fontSize=12;fontStyle=0;aspect=fixed;shape=mxgraph.aws4.resourceIcon;resIcon=mxgraph.aws4.rds;" vertex="1" parent="1"><mxGeometry x="500" y="950" width="50" height="50" as="geometry"/></mxCell><mxCell id="15" value="BirthdayPresentTrackerLambdaRole" style="outlineConnect=0;fontColor=#B3B3B3;gradientColor=#F54749;gradientDirection=north;fillColor=#C7131F;strokeColor=#ffffff;dashed=0;verticalLabelPosition=bottom;verticalAlign=top;align=center;html=1;fontSize=12;fontStyle=0;aspect=fixed;shape=mxgraph.aws4.resourceIcon;resIcon=mxgraph.aws4.role;" vertex="1" parent="1"><mxGeometry x="500" y="850" width="50" height="50" as="geometry"/></mxCell><mxCell id="16" value="BirthdayPresentTrackerLambda" style="outlineConnect=0;fontColor=#B3B3B3;gradientColor=#F78E04;gradientDirection=north;fillColor=#D05C17;strokeColor=#ffffff;dashed=0;verticalLabelPosition=bottom;verticalAlign=top;align=center;html=1;fontSize=12;fontStyle=0;aspect=fixed;shape=mxgraph.aws4.resourceIcon;resIcon=mxgraph.aws4.lambda;" vertex="1" parent="1"><mxGeometry x="250" y="900" width="50" height="50" as="geometry"/></mxCell><mxCell id="17" value="BirthdayPresentTrackerApi" style="outlineConnect=0;fontColor=#B3B3B3;gradientColor=#945DF2;gradientDirection=north;fillColor=#5A30B5;strokeColor=#ffffff;dashed=0;verticalLabelPosition=bottom;verticalAlign=top;align=center;html=1;fontSize=12;fontStyle=0;aspect=fixed;shape=mxgraph.aws4.resourceIcon;resIcon=mxgraph.aws4.api_gateway;" vertex="1" parent="1"><mxGeometry x="500" y="500" width="50" height="50" as="geometry"/></mxCell><mxCell id="18" value="BirthdayPresentTrackerResource" style="outlineConnect=0;fontColor=#B3B3B3;gradientColor=#945DF2;gradientDirection=north;fillColor=#5A30B5;strokeColor=#ffffff;dashed=0;verticalLabelPosition=bottom;verticalAlign=top;align=center;html=1;fontSize=12;fontStyle=0;aspect=fixed;shape=mxgraph.aws4.resourceIcon;resIcon=mxgraph.aws4.api_gateway;" vertex="1" parent="1"><mxGeometry x="250" y="600" width="50" height="50" as="geometry"/></mxCell><mxCell id="19" value="BirthdayPresentTrackerGetMethod" style="outlineConnect=0;fontColor=#B3B3B3;gradientColor=#945DF2;gradientDirection=north;fillColor=#5A30B5;strokeColor=#ffffff;dashed=0;verticalLabelPosition=bottom;verticalAlign=top;align=center;html=1;fontSize=12;fontStyle=0;aspect=fixed;shape=mxgraph.aws4.resourceIcon;resIcon=mxgraph.aws4.api_gateway;" vertex="1" parent="1"><mxGeometry y="450" width="50" height="50" as="geometry"/></mxCell><mxCell id="20" value="BirthdayPresentTrackerPutMethod" style="outlineConnect=0;fontColor=#B3B3B3;gradientColor=#945DF2;gradientDirection=north;fillColor=#5A30B5;strokeColor=#ffffff;dashed=0;verticalLabelPosition=bottom;verticalAlign=top;align=center;html=1;fontSize=12;fontStyle=0;aspect=fixed;shape=mxgraph.aws4.resourceIcon;resIcon=mxgraph.aws4.api_gateway;" vertex="1" parent="1"><mxGeometry y="550" width="50" height="50" as="geometry"/></mxCell><mxCell id="21" value="BirthdayPresentTrackerPostMethod" style="outlineConnect=0;fontColor=#B3B3B3;gradientColor=#945DF2;gradientDirection=north;fillColor=#5A30B5;strokeColor=#ffffff;dashed=0;verticalLabelPosition=bottom;verticalAlign=top;align=center;html=1;fontSize=12;fontStyle=0;aspect=fixed;shape=mxgraph.aws4.resourceIcon;resIcon=mxgraph.aws4.api_gateway;" vertex="1" parent="1"><mxGeometry y="650" width="50" height="50" as="geometry"/></mxCell><mxCell id="22" value="BirthdayPresentTrackerDeleteMethod" style="outlineConnect=0;fontColor=#B3B3B3;gradientColor=#945DF2;gradientDirection=north;fillColor=#5A30B5;strokeColor=#ffffff;dashed=0;verticalLabelPosition=bottom;verticalAlign=top;align=center;html=1;fontSize=12;fontStyle=0;aspect=fixed;shape=mxgraph.aws4.resourceIcon;resIcon=mxgraph.aws4.api_gateway;" vertex="1" parent="1"><mxGeometry y="750" width="50" height="50" as="geometry"/></mxCell><mxCell id="23" value="LambdaInvokePermission" style="outlineConnect=0;fontColor=#B3B3B3;gradientColor=#F54749;gradientDirection=north;fillColor=#C7131F;strokeColor=#ffffff;dashed=0;verticalLabelPosition=bottom;verticalAlign=top;align=center;html=1;fontSize=12;fontStyle=0;aspect=fixed;shape=mxgraph.aws4.resourceIcon;resIcon=mxgraph.aws4.policy;" vertex="1" parent="1"><mxGeometry y="950" width="50" height="50" as="geometry"/></mxCell><mxCell id="24" value="BirthdayPresentTrackerApiDeployment" style="outlineConnect=0;fontColor=#B3B3B3;gradientColor=#945DF2;gradientDirection=north;fillColor=#5A30B5;strokeColor=#ffffff;dashed=0;verticalLabelPosition=bottom;verticalAlign=top;align=center;html=1;fontSize=12;fontStyle=0;aspect=fixed;shape=mxgraph.aws4.resourceIcon;resIcon=mxgraph.aws4.api_gateway;" vertex="1" parent="1"><mxGeometry x="250" y="1100" width="50" height="50" as="geometry"/></mxCell><mxCell id="25" value="iam  aws&#xA;policy/service-role/awslambdabasicexecutionrole" style="outlineConnect=0;fontColor=#B3B3B3;gradientColor=#aaaaaa;gradientDirection=north;fillColor=#aaaaaa;strokeColor=#ffffff;dashed=0;verticalLabelPosition=bottom;verticalAlign=top;align=center;html=1;fontSize=12;fontStyle=0;aspect=fixed;shape=mxgraph.aws4.resourceIcon;resIcon=mxgraph.aws4.identity_and_access_management;" vertex="1" parent="1"><mxGeometry x="750" y="725" width="50" height="50" as="geometry"/></mxCell><mxCell id="26" value="iam  aws&#xA;policy/service-role/awslambdavpcaccessexecutionrole" style="outlineConnect=0;fontColor=#B3B3B3;gradientColor=#aaaaaa;gradientDirection=north;fillColor=#aaaaaa;strokeColor=#ffffff;dashed=0;verticalLabelPosition=bottom;verticalAlign=top;align=center;html=1;fontSize=12;fontStyle=0;aspect=fixed;shape=mxgraph.aws4.resourceIcon;resIcon=mxgraph.aws4.identity_and_access_management;" vertex="1" parent="1"><mxGeometry x="750" y="825" width="50" height="50" as="geometry"/></mxCell><mxCell id="27" value="lambda ${region} 017000801446&#xA;18" style="outlineConnect=0;fontColor=#B3B3B3;gradientColor=#aaaaaa;gradientDirection=north;fillColor=#aaaaaa;strokeColor=#ffffff;dashed=0;verticalLabelPosition=bottom;verticalAlign=top;align=center;html=1;fontSize=12;fontStyle=0;aspect=fixed;shape=mxgraph.aws4.resourceIcon;resIcon=mxgraph.aws4.lambda;" vertex="1" parent="1"><mxGeometry x="500" y="700" width="50" height="50" as="geometry"/></mxCell><mxCell id="28" value="apigateway ${region} lambda&#xA;path/2015-03-31/functions/${lambdaarn}/invocations" style="outlineConnect=0;fontColor=#B3B3B3;gradientColor=#aaaaaa;gradientDirection=north;fillColor=#aaaaaa;strokeColor=#ffffff;dashed=0;verticalLabelPosition=bottom;verticalAlign=top;align=center;html=1;fontSize=12;fontStyle=0;aspect=fixed;shape=mxgraph.aws4.resourceIcon;resIcon=mxgraph.aws4.apigateway;" vertex="1" parent="1"><mxGeometry x="250" y="700" width="50" height="50" as="geometry"/></mxCell><mxCell id="29" value="execute-api  &#xA;${birthdaypresenttrackerapi}/*/*" style="outlineConnect=0;fontColor=#B3B3B3;gradientColor=#aaaaaa;gradientDirection=north;fillColor=#aaaaaa;strokeColor=#ffffff;dashed=0;verticalLabelPosition=bottom;verticalAlign=top;align=center;html=1;fontSize=12;fontStyle=0;aspect=fixed;shape=mxgraph.aws4.resourceIcon;resIcon=mxgraph.aws4.execute-api;" vertex="1" parent="1"><mxGeometry x="250" y="1000" width="50" height="50" as="geometry"/></mxCell><mxCell id="BirthdayPresentTrackerVPC|BirthdayPresentTrackerSubnetA" value="VpcId" style="edgeStyle=orthogonalEdgeStyle;rounded=1;orthogonalLoop=1;jettySize=auto;html=1;labelBackgroundColor=none;fontColor=#EA6B66;noEdgeStyle=1;orthogonal=1;" edge="1" parent="1" source="3" target="2"><mxGeometry relative="1" as="geometry"><Array as="points"><mxPoint x="1062" y="575"/><mxPoint x="1236" y="485.00000000000006"/></Array></mxGeometry></mxCell><mxCell id="BirthdayPresentTrackerVPC|BirthdayPresentTrackerSubnetB" value="VpcId" style="edgeStyle=orthogonalEdgeStyle;rounded=1;orthogonalLoop=1;jettySize=auto;html=1;labelBackgroundColor=none;fontColor=#EA6B66;noEdgeStyle=1;orthogonal=1;" edge="1" parent="1" source="4" target="2"><mxGeometry relative="1" as="geometry"><Array as="points"><mxPoint x="1062" y="675"/><mxPoint x="1238" y="491.66666666666674"/></Array></mxGeometry></mxCell><mxCell id="BirthdayPresentTrackerSubnetA|BirthdayPresentTrackerDBSubnetGroup" value="SubnetIds" style="edgeStyle=orthogonalEdgeStyle;rounded=1;orthogonalLoop=1;jettySize=auto;html=1;labelBackgroundColor=none;fontColor=#EA6B66;noEdgeStyle=1;orthogonal=1;" edge="1" parent="1" source="5" target="3"><mxGeometry relative="1" as="geometry"><Array as="points"><mxPoint x="812" y="940"/><mxPoint x="988" y="588.3333333333334"/></Array></mxGeometry></mxCell><mxCell id="BirthdayPresentTrackerSubnetB|BirthdayPresentTrackerDBSubnetGroup" value="SubnetIds" style="edgeStyle=orthogonalEdgeStyle;rounded=1;orthogonalLoop=1;jettySize=auto;html=1;labelBackgroundColor=none;fontColor=#EA6B66;noEdgeStyle=1;orthogonal=1;" edge="1" parent="1" source="5" target="4"><mxGeometry relative="1" as="geometry"><Array as="points"><mxPoint x="812" y="960"/><mxPoint x="988" y="688.3333333333334"/></Array></mxGeometry></mxCell><mxCell id="BirthdayPresentTrackerVPC|BirthdayPresentTrackerLambdaSecurityGroup" value="VpcId" style="edgeStyle=orthogonalEdgeStyle;rounded=1;orthogonalLoop=1;jettySize=auto;html=1;labelBackgroundColor=none;fontColor=#EA6B66;noEdgeStyle=1;orthogonal=1;" edge="1" parent="1" source="6" target="2"><mxGeometry relative="1" as="geometry"><Array as="points"><mxPoint x="562" y="225"/><mxPoint x="650" y="175"/><mxPoint x="900" y="175"/><mxPoint x="900" y="175"/><mxPoint x="1150" y="175"/><mxPoint x="1238" y="458.3333333333333"/></Array></mxGeometry></mxCell><mxCell id="BirthdayPresentTrackerLambdaSecurityGroup|BirthdayPresentTrackerLambdaSecurityGroupEgress" value="GroupId" style="edgeStyle=orthogonalEdgeStyle;rounded=1;orthogonalLoop=1;jettySize=auto;html=1;labelBackgroundColor=none;fontColor=#EA6B66;noEdgeStyle=1;orthogonal=1;" edge="1" parent="1" source="7" target="6"><mxGeometry relative="1" as="geometry"><Array as="points"><mxPoint x="312" y="125"/><mxPoint x="486" y="220"/></Array></mxGeometry></mxCell><mxCell id="BirthdayPresentTrackerVPC|BirthdayPresentTrackerRDSSecurityGroup" value="VpcId" style="edgeStyle=orthogonalEdgeStyle;rounded=1;orthogonalLoop=1;jettySize=auto;html=1;labelBackgroundColor=none;fontColor=#EA6B66;noEdgeStyle=1;orthogonal=1;" edge="1" parent="1" source="8" target="2"><mxGeometry relative="1" as="geometry"><Array as="points"><mxPoint x="812" y="350"/><mxPoint x="900" y="500"/><mxPoint x="1150" y="500"/><mxPoint x="1234" y="478.33333333333337"/></Array></mxGeometry></mxCell><mxCell id="BirthdayPresentTrackerRDSSecurityGroup|BirthdayPresentTrackerRDSIngress" value="GroupId" style="edgeStyle=orthogonalEdgeStyle;rounded=1;orthogonalLoop=1;jettySize=auto;html=1;labelBackgroundColor=none;fontColor=#EA6B66;noEdgeStyle=1;orthogonal=1;" edge="1" parent="1" source="9" target="8"><mxGeometry relative="1" as="geometry"><Array as="points"><mxPoint x="312" y="15"/><mxPoint x="400" y="150"/><mxPoint x="650" y="150"/><mxPoint x="738" y="340"/></Array></mxGeometry></mxCell><mxCell id="BirthdayPresentTrackerLambdaSecurityGroup|BirthdayPresentTrackerRDSIngress" value="SourceSecurityGroupId" style="edgeStyle=orthogonalEdgeStyle;rounded=1;orthogonalLoop=1;jettySize=auto;html=1;labelBackgroundColor=none;fontColor=#EA6B66;noEdgeStyle=1;orthogonal=1;" edge="1" parent="1" source="9" target="6"><mxGeometry relative="1" as="geometry"><Array as="points"><mxPoint x="312" y="35"/><mxPoint x="488" y="210"/></Array></mxGeometry></mxCell><mxCell id="BirthdayPresentTrackerVPC|BirthdayPresentTrackerSecretsManagerEndpointSecurityGroup" value="VpcId" style="edgeStyle=orthogonalEdgeStyle;rounded=1;orthogonalLoop=1;jettySize=auto;html=1;labelBackgroundColor=none;fontColor=#EA6B66;noEdgeStyle=1;orthogonal=1;" edge="1" parent="1" source="10" target="2"><mxGeometry relative="1" as="geometry"><Array as="points"><mxPoint x="312" y="275"/><mxPoint x="400" y="300"/><mxPoint x="650" y="300"/><mxPoint x="650" y="225"/><mxPoint x="900" y="225"/><mxPoint x="900" y="225"/><mxPoint x="1150" y="225"/><mxPoint x="1236" y="465"/></Array></mxGeometry></mxCell><mxCell id="BirthdayPresentTrackerSecretsManagerEndpointSecurityGroup|BirthdayPresentTrackerSecretsManagerIngress" value="GroupId" style="edgeStyle=orthogonalEdgeStyle;rounded=1;orthogonalLoop=1;jettySize=auto;html=1;labelBackgroundColor=none;fontColor=#EA6B66;noEdgeStyle=1;orthogonal=1;" edge="1" parent="1" source="11" target="10"><mxGeometry relative="1" as="geometry"><Array as="points"><mxPoint x="62" y="247.5"/><mxPoint x="238" y="265"/></Array></mxGeometry></mxCell><mxCell id="BirthdayPresentTrackerLambdaSecurityGroup|BirthdayPresentTrackerSecretsManagerIngress" value="SourceSecurityGroupId" style="edgeStyle=orthogonalEdgeStyle;rounded=1;orthogonalLoop=1;jettySize=auto;html=1;labelBackgroundColor=none;fontColor=#EA6B66;noEdgeStyle=1;orthogonal=1;" edge="1" parent="1" source="11" target="6"><mxGeometry relative="1" as="geometry"><Array as="points"><mxPoint x="62" y="227.5"/><mxPoint x="150" y="200"/><mxPoint x="400" y="200"/><mxPoint x="486" y="230"/></Array></mxGeometry></mxCell><mxCell id="BirthdayPresentTrackerVPC|BirthdayPresentTrackerSecretsManagerEndpoint" value="VpcId" style="edgeStyle=orthogonalEdgeStyle;rounded=1;orthogonalLoop=1;jettySize=auto;html=1;labelBackgroundColor=none;fontColor=#EA6B66;noEdgeStyle=1;orthogonal=1;" edge="1" parent="1" source="13" target="2"><mxGeometry relative="1" as="geometry"><Array as="points"><mxPoint x="64" y="370"/><mxPoint x="150" y="350"/><mxPoint x="400" y="350"/><mxPoint x="400" y="350"/><mxPoint x="650" y="350"/><mxPoint x="650" y="275"/><mxPoint x="900" y="275"/><mxPoint x="900" y="275"/><mxPoint x="1150" y="275"/><mxPoint x="1234" y="471.6666666666667"/></Array></mxGeometry></mxCell><mxCell id="BirthdayPresentTrackerSubnetA|BirthdayPresentTrackerSecretsManagerEndpoint" value="SubnetIds" style="edgeStyle=orthogonalEdgeStyle;rounded=1;orthogonalLoop=1;jettySize=auto;html=1;labelBackgroundColor=none;fontColor=#EA6B66;noEdgeStyle=1;orthogonal=1;" edge="1" parent="1" source="13" target="3"><mxGeometry relative="1" as="geometry"><Array as="points"><mxPoint x="64" y="380"/><mxPoint x="150" y="400"/><mxPoint x="400" y="400"/><mxPoint x="400" y="400"/><mxPoint x="650" y="400"/><mxPoint x="650" y="425"/><mxPoint x="900" y="425"/><mxPoint x="988" y="561.6666666666666"/></Array></mxGeometry></mxCell><mxCell id="BirthdayPresentTrackerSubnetB|BirthdayPresentTrackerSecretsManagerEndpoint" value="SubnetIds" style="edgeStyle=orthogonalEdgeStyle;rounded=1;orthogonalLoop=1;jettySize=auto;html=1;labelBackgroundColor=none;fontColor=#EA6B66;noEdgeStyle=1;orthogonal=1;" edge="1" parent="1" source="13" target="4"><mxGeometry relative="1" as="geometry"><Array as="points"><mxPoint x="62" y="390"/><mxPoint x="150" y="450"/><mxPoint x="400" y="450"/><mxPoint x="400" y="450"/><mxPoint x="650" y="450"/><mxPoint x="650" y="475"/><mxPoint x="900" y="475"/><mxPoint x="988" y="661.6666666666666"/></Array></mxGeometry></mxCell><mxCell id="BirthdayPresentTrackerSecretsManagerEndpointSecurityGroup|BirthdayPresentTrackerSecretsManagerEndpoint" value="SecurityGroupIds" style="edgeStyle=orthogonalEdgeStyle;rounded=1;orthogonalLoop=1;jettySize=auto;html=1;labelBackgroundColor=none;fontColor=#EA6B66;noEdgeStyle=1;orthogonal=1;" edge="1" parent="1" source="13" target="10"><mxGeometry relative="1" as="geometry"><Array as="points"><mxPoint x="62" y="360"/><mxPoint x="238" y="285"/></Array></mxGeometry></mxCell><mxCell id="BirthdayPresentTrackerDBSubnetGroup|BirthdayPresentTrackerRDSInstance" value="DBSubnetGroupName" style="edgeStyle=orthogonalEdgeStyle;rounded=1;orthogonalLoop=1;jettySize=auto;html=1;labelBackgroundColor=none;fontColor=#EA6B66;noEdgeStyle=1;orthogonal=1;" edge="1" parent="1" source="14" target="5"><mxGeometry relative="1" as="geometry"><Array as="points"><mxPoint x="562" y="985"/><mxPoint x="738" y="950"/></Array></mxGeometry></mxCell><mxCell id="BirthdayPresentTrackerRDSSecurityGroup|BirthdayPresentTrackerRDSInstance" value="VPCSecurityGroups" style="edgeStyle=orthogonalEdgeStyle;rounded=1;orthogonalLoop=1;jettySize=auto;html=1;labelBackgroundColor=none;fontColor=#EA6B66;noEdgeStyle=1;orthogonal=1;" edge="1" parent="1" source="14" target="8"><mxGeometry relative="1" as="geometry"><Array as="points"><mxPoint x="562" y="965"/><mxPoint x="738" y="360"/></Array></mxGeometry></mxCell><mxCell id="iam  aws&#xA;policy/service-role/awslambdabasicexecutionrole|BirthdayPresentTrackerLambdaRole" value="ManagedPolicyArns" style="edgeStyle=orthogonalEdgeStyle;rounded=1;orthogonalLoop=1;jettySize=auto;html=1;labelBackgroundColor=none;fontColor=#EA6B66;noEdgeStyle=1;orthogonal=1;" edge="1" parent="1" source="15" target="25"><mxGeometry relative="1" as="geometry"><Array as="points"><mxPoint x="564" y="875"/><mxPoint x="738" y="750"/></Array></mxGeometry></mxCell><mxCell id="iam  aws&#xA;policy/service-role/awslambdavpcaccessexecutionrole|BirthdayPresentTrackerLambdaRole" value="ManagedPolicyArns" style="edgeStyle=orthogonalEdgeStyle;rounded=1;orthogonalLoop=1;jettySize=auto;html=1;labelBackgroundColor=none;fontColor=#EA6B66;noEdgeStyle=1;orthogonal=1;" edge="1" parent="1" source="15" target="26"><mxGeometry relative="1" as="geometry"><Array as="points"><mxPoint x="562" y="888.3333333333334"/><mxPoint x="738" y="850"/></Array></mxGeometry></mxCell><mxCell id="BirthdayPresentTrackerDBSecret|BirthdayPresentTrackerLambdaRole" value="PolicyDocument" style="edgeStyle=orthogonalEdgeStyle;rounded=1;orthogonalLoop=1;jettySize=auto;html=1;labelBackgroundColor=none;fontColor=#EA6B66;noEdgeStyle=1;orthogonal=1;" edge="1" parent="1" source="15" target="12"><mxGeometry relative="1" as="geometry"><Array as="points"><mxPoint x="562" y="861.6666666666666"/><mxPoint x="738" y="660"/></Array></mxGeometry></mxCell><mxCell id="BirthdayPresentTrackerSubnetA|BirthdayPresentTrackerLambda" value="SubnetIds" style="edgeStyle=orthogonalEdgeStyle;rounded=1;orthogonalLoop=1;jettySize=auto;html=1;labelBackgroundColor=none;fontColor=#EA6B66;noEdgeStyle=1;orthogonal=1;" edge="1" parent="1" source="16" target="3"><mxGeometry relative="1" as="geometry"><Array as="points"><mxPoint x="314" y="910.7142857142857"/><mxPoint x="400" y="600"/><mxPoint x="650" y="600"/><mxPoint x="650" y="525"/><mxPoint x="900" y="525"/><mxPoint x="986" y="575"/></Array></mxGeometry></mxCell><mxCell id="BirthdayPresentTrackerSubnetB|BirthdayPresentTrackerLambda" value="SubnetIds" style="edgeStyle=orthogonalEdgeStyle;rounded=1;orthogonalLoop=1;jettySize=auto;html=1;labelBackgroundColor=none;fontColor=#EA6B66;noEdgeStyle=1;orthogonal=1;" edge="1" parent="1" source="16" target="4"><mxGeometry relative="1" as="geometry"><Array as="points"><mxPoint x="316" y="917.8571428571428"/><mxPoint x="400" y="650"/><mxPoint x="650" y="650"/><mxPoint x="650" y="575"/><mxPoint x="900" y="575"/><mxPoint x="986" y="675"/></Array></mxGeometry></mxCell><mxCell id="BirthdayPresentTrackerLambdaSecurityGroup|BirthdayPresentTrackerLambda" value="SecurityGroupIds" style="edgeStyle=orthogonalEdgeStyle;rounded=1;orthogonalLoop=1;jettySize=auto;html=1;labelBackgroundColor=none;fontColor=#EA6B66;noEdgeStyle=1;orthogonal=1;" edge="1" parent="1" source="16" target="6"><mxGeometry relative="1" as="geometry"><Array as="points"><mxPoint x="312" y="903.5714285714286"/><mxPoint x="488" y="240"/></Array></mxGeometry></mxCell><mxCell id="lambda ${region} 017000801446&#xA;18|BirthdayPresentTrackerLambda" value="Layers" style="edgeStyle=orthogonalEdgeStyle;rounded=1;orthogonalLoop=1;jettySize=auto;html=1;labelBackgroundColor=none;fontColor=#EA6B66;noEdgeStyle=1;orthogonal=1;" edge="1" parent="1" source="16" target="27"><mxGeometry relative="1" as="geometry"><Array as="points"><mxPoint x="318" y="924.9999999999999"/><mxPoint x="488" y="725"/></Array></mxGeometry></mxCell><mxCell id="BirthdayPresentTrackerDBSecret|BirthdayPresentTrackerLambda" value="Variable" style="edgeStyle=orthogonalEdgeStyle;rounded=1;orthogonalLoop=1;jettySize=auto;html=1;labelBackgroundColor=none;fontColor=#EA6B66;noEdgeStyle=1;orthogonal=1;" edge="1" parent="1" source="16" target="12"><mxGeometry relative="1" as="geometry"><Array as="points"><mxPoint x="316" y="932.142857142857"/><mxPoint x="400" y="800"/><mxPoint x="650" y="800"/><mxPoint x="738" y="640"/></Array></mxGeometry></mxCell><mxCell id="BirthdayPresentTrackerLambdaRole|BirthdayPresentTrackerLambda" value="Role" style="edgeStyle=orthogonalEdgeStyle;rounded=1;orthogonalLoop=1;jettySize=auto;html=1;labelBackgroundColor=none;fontColor=#EA6B66;noEdgeStyle=1;orthogonal=1;" edge="1" parent="1" source="16" target="15"><mxGeometry relative="1" as="geometry"><Array as="points"><mxPoint x="314" y="939.2857142857141"/><mxPoint x="488" y="875"/></Array></mxGeometry></mxCell><mxCell id="BirthdayPresentTrackerRDSInstance|BirthdayPresentTrackerLambda" value="Variable" style="edgeStyle=orthogonalEdgeStyle;rounded=1;orthogonalLoop=1;jettySize=auto;html=1;labelBackgroundColor=none;fontColor=#EA6B66;noEdgeStyle=1;orthogonal=1;" edge="1" parent="1" source="16" target="14"><mxGeometry relative="1" as="geometry"><Array as="points"><mxPoint x="312" y="946.4285714285712"/><mxPoint x="488" y="975"/></Array></mxGeometry></mxCell><mxCell id="BirthdayPresentTrackerApi|BirthdayPresentTrackerResource" value="RestApiId&#xA;ParentId" style="edgeStyle=orthogonalEdgeStyle;rounded=1;orthogonalLoop=1;jettySize=auto;html=1;labelBackgroundColor=none;fontColor=#EA6B66;noEdgeStyle=1;orthogonal=1;" edge="1" parent="1" source="18" target="17"><mxGeometry relative="1" as="geometry"><Array as="points"><mxPoint x="312" y="625"/><mxPoint x="484" y="521.6666666666666"/></Array></mxGeometry></mxCell><mxCell id="BirthdayPresentTrackerApi|BirthdayPresentTrackerGetMethod" value="RestApiId" style="edgeStyle=orthogonalEdgeStyle;rounded=1;orthogonalLoop=1;jettySize=auto;html=1;labelBackgroundColor=none;fontColor=#EA6B66;noEdgeStyle=1;orthogonal=1;" edge="1" parent="1" source="19" target="17"><mxGeometry relative="1" as="geometry"><Array as="points"><mxPoint x="62" y="460"/><mxPoint x="150" y="500"/><mxPoint x="400" y="500"/><mxPoint x="488" y="508.3333333333333"/></Array></mxGeometry></mxCell><mxCell id="BirthdayPresentTrackerResource|BirthdayPresentTrackerGetMethod" value="ResourceId" style="edgeStyle=orthogonalEdgeStyle;rounded=1;orthogonalLoop=1;jettySize=auto;html=1;labelBackgroundColor=none;fontColor=#EA6B66;noEdgeStyle=1;orthogonal=1;" edge="1" parent="1" source="19" target="18"><mxGeometry relative="1" as="geometry"><Array as="points"><mxPoint x="64" y="470"/><mxPoint x="238" y="610"/></Array></mxGeometry></mxCell><mxCell id="apigateway ${region} lambda&#xA;path/2015-03-31/functions/${lambdaarn}/invocations|BirthdayPresentTrackerGetMethod" value="Uri" style="edgeStyle=orthogonalEdgeStyle;rounded=1;orthogonalLoop=1;jettySize=auto;html=1;labelBackgroundColor=none;fontColor=#EA6B66;noEdgeStyle=1;orthogonal=1;" edge="1" parent="1" source="19" target="28"><mxGeometry relative="1" as="geometry"><Array as="points"><mxPoint x="64" y="480"/><mxPoint x="238" y="710"/></Array></mxGeometry></mxCell><mxCell id="BirthdayPresentTrackerLambda|BirthdayPresentTrackerGetMethod" value="Uri" style="edgeStyle=orthogonalEdgeStyle;rounded=1;orthogonalLoop=1;jettySize=auto;html=1;labelBackgroundColor=none;fontColor=#EA6B66;noEdgeStyle=1;orthogonal=1;" edge="1" parent="1" source="19" target="16"><mxGeometry relative="1" as="geometry"><Array as="points"><mxPoint x="62" y="490"/><mxPoint x="238" y="909"/></Array></mxGeometry></mxCell><mxCell id="BirthdayPresentTrackerApi|BirthdayPresentTrackerPutMethod" value="RestApiId" style="edgeStyle=orthogonalEdgeStyle;rounded=1;orthogonalLoop=1;jettySize=auto;html=1;labelBackgroundColor=none;fontColor=#EA6B66;noEdgeStyle=1;orthogonal=1;" edge="1" parent="1" source="20" target="17"><mxGeometry relative="1" as="geometry"><Array as="points"><mxPoint x="62" y="560"/><mxPoint x="150" y="550"/><mxPoint x="400" y="550"/><mxPoint x="486" y="515"/></Array></mxGeometry></mxCell><mxCell id="BirthdayPresentTrackerResource|BirthdayPresentTrackerPutMethod" value="ResourceId" style="edgeStyle=orthogonalEdgeStyle;rounded=1;orthogonalLoop=1;jettySize=auto;html=1;labelBackgroundColor=none;fontColor=#EA6B66;noEdgeStyle=1;orthogonal=1;" edge="1" parent="1" source="20" target="18"><mxGeometry relative="1" as="geometry"><Array as="points"><mxPoint x="64" y="570"/><mxPoint x="236" y="620"/></Array></mxGeometry></mxCell><mxCell id="apigateway ${region} lambda&#xA;path/2015-03-31/functions/${lambdaarn}/invocations|BirthdayPresentTrackerPutMethod" value="Uri" style="edgeStyle=orthogonalEdgeStyle;rounded=1;orthogonalLoop=1;jettySize=auto;html=1;labelBackgroundColor=none;fontColor=#EA6B66;noEdgeStyle=1;orthogonal=1;" edge="1" parent="1" source="20" target="28"><mxGeometry relative="1" as="geometry"><Array as="points"><mxPoint x="64" y="580"/><mxPoint x="236" y="720"/></Array></mxGeometry></mxCell><mxCell id="BirthdayPresentTrackerLambda|BirthdayPresentTrackerPutMethod" value="Uri" style="edgeStyle=orthogonalEdgeStyle;rounded=1;orthogonalLoop=1;jettySize=auto;html=1;labelBackgroundColor=none;fontColor=#EA6B66;noEdgeStyle=1;orthogonal=1;" edge="1" parent="1" source="20" target="16"><mxGeometry relative="1" as="geometry"><Array as="points"><mxPoint x="62" y="590"/><mxPoint x="236" y="917"/></Array></mxGeometry></mxCell><mxCell id="BirthdayPresentTrackerApi|BirthdayPresentTrackerPostMethod" value="RestApiId" style="edgeStyle=orthogonalEdgeStyle;rounded=1;orthogonalLoop=1;jettySize=auto;html=1;labelBackgroundColor=none;fontColor=#EA6B66;noEdgeStyle=1;orthogonal=1;" edge="1" parent="1" source="21" target="17"><mxGeometry relative="1" as="geometry"><Array as="points"><mxPoint x="64" y="680"/><mxPoint x="150" y="800"/><mxPoint x="400" y="800"/><mxPoint x="484" y="528.3333333333333"/></Array></mxGeometry></mxCell><mxCell id="BirthdayPresentTrackerResource|BirthdayPresentTrackerPostMethod" value="ResourceId" style="edgeStyle=orthogonalEdgeStyle;rounded=1;orthogonalLoop=1;jettySize=auto;html=1;labelBackgroundColor=none;fontColor=#EA6B66;noEdgeStyle=1;orthogonal=1;" edge="1" parent="1" source="21" target="18"><mxGeometry relative="1" as="geometry"><Array as="points"><mxPoint x="62" y="660"/><mxPoint x="236" y="630"/></Array></mxGeometry></mxCell><mxCell id="apigateway ${region} lambda&#xA;path/2015-03-31/functions/${lambdaarn}/invocations|BirthdayPresentTrackerPostMethod" value="Uri" style="edgeStyle=orthogonalEdgeStyle;rounded=1;orthogonalLoop=1;jettySize=auto;html=1;labelBackgroundColor=none;fontColor=#EA6B66;noEdgeStyle=1;orthogonal=1;" edge="1" parent="1" source="21" target="28"><mxGeometry relative="1" as="geometry"><Array as="points"><mxPoint x="64" y="670"/><mxPoint x="236" y="730"/></Array></mxGeometry></mxCell><mxCell id="BirthdayPresentTrackerLambda|BirthdayPresentTrackerPostMethod" value="Uri" style="edgeStyle=orthogonalEdgeStyle;rounded=1;orthogonalLoop=1;jettySize=auto;html=1;labelBackgroundColor=none;fontColor=#EA6B66;noEdgeStyle=1;orthogonal=1;" edge="1" parent="1" source="21" target="16"><mxGeometry relative="1" as="geometry"><Array as="points"><mxPoint x="62" y="690"/><mxPoint x="234" y="925"/></Array></mxGeometry></mxCell><mxCell id="BirthdayPresentTrackerApi|BirthdayPresentTrackerDeleteMethod" value="RestApiId" style="edgeStyle=orthogonalEdgeStyle;rounded=1;orthogonalLoop=1;jettySize=auto;html=1;labelBackgroundColor=none;fontColor=#EA6B66;noEdgeStyle=1;orthogonal=1;" edge="1" parent="1" source="22" target="17"><mxGeometry relative="1" as="geometry"><Array as="points"><mxPoint x="64" y="780"/><mxPoint x="150" y="850"/><mxPoint x="400" y="850"/><mxPoint x="486" y="534.9999999999999"/></Array></mxGeometry></mxCell><mxCell id="BirthdayPresentTrackerResource|BirthdayPresentTrackerDeleteMethod" value="ResourceId" style="edgeStyle=orthogonalEdgeStyle;rounded=1;orthogonalLoop=1;jettySize=auto;html=1;labelBackgroundColor=none;fontColor=#EA6B66;noEdgeStyle=1;orthogonal=1;" edge="1" parent="1" source="22" target="18"><mxGeometry relative="1" as="geometry"><Array as="points"><mxPoint x="62" y="760"/><mxPoint x="238" y="640"/></Array></mxGeometry></mxCell><mxCell id="apigateway ${region} lambda&#xA;path/2015-03-31/functions/${lambdaarn}/invocations|BirthdayPresentTrackerDeleteMethod" value="Uri" style="edgeStyle=orthogonalEdgeStyle;rounded=1;orthogonalLoop=1;jettySize=auto;html=1;labelBackgroundColor=none;fontColor=#EA6B66;noEdgeStyle=1;orthogonal=1;" edge="1" parent="1" source="22" target="28"><mxGeometry relative="1" as="geometry"><Array as="points"><mxPoint x="64" y="770"/><mxPoint x="238" y="740"/></Array></mxGeometry></mxCell><mxCell id="BirthdayPresentTrackerLambda|BirthdayPresentTrackerDeleteMethod" value="Uri" style="edgeStyle=orthogonalEdgeStyle;rounded=1;orthogonalLoop=1;jettySize=auto;html=1;labelBackgroundColor=none;fontColor=#EA6B66;noEdgeStyle=1;orthogonal=1;" edge="1" parent="1" source="22" target="16"><mxGeometry relative="1" as="geometry"><Array as="points"><mxPoint x="62" y="790"/><mxPoint x="236" y="933"/></Array></mxGeometry></mxCell><mxCell id="BirthdayPresentTrackerLambda|LambdaInvokePermission" value="FunctionName" style="edgeStyle=orthogonalEdgeStyle;rounded=1;orthogonalLoop=1;jettySize=auto;html=1;labelBackgroundColor=none;fontColor=#EA6B66;noEdgeStyle=1;orthogonal=1;" edge="1" parent="1" source="23" target="16"><mxGeometry relative="1" as="geometry"><Array as="points"><mxPoint x="62" y="965"/><mxPoint x="238" y="941"/></Array></mxGeometry></mxCell><mxCell id="execute-api  &#xA;${birthdaypresenttrackerapi}/*/*|LambdaInvokePermission" value="SourceArn" style="edgeStyle=orthogonalEdgeStyle;rounded=1;orthogonalLoop=1;jettySize=auto;html=1;labelBackgroundColor=none;fontColor=#EA6B66;noEdgeStyle=1;orthogonal=1;" edge="1" parent="1" source="23" target="29"><mxGeometry relative="1" as="geometry"><Array as="points"><mxPoint x="62" y="985"/><mxPoint x="238" y="1025"/></Array></mxGeometry></mxCell><mxCell id="BirthdayPresentTrackerApi|BirthdayPresentTrackerApiDeployment" value="RestApiId" style="edgeStyle=orthogonalEdgeStyle;rounded=1;orthogonalLoop=1;jettySize=auto;html=1;labelBackgroundColor=none;fontColor=#EA6B66;noEdgeStyle=1;orthogonal=1;" edge="1" parent="1" source="24" target="17"><mxGeometry relative="1" as="geometry"><Array as="points"><mxPoint x="312" y="1125"/><mxPoint x="488" y="541.6666666666665"/></Array></mxGeometry></mxCell></root></mxGraphModel>
            </diagram>
          </mxfile>